<svg xmlns="http://www.w3.org/2000/svg" width="800" height="800" viewBox="0 0 489 489">
  <path fill="#ff0000" d="M454.3 31.6c-28.5-15.3-59.1-23.4-93.7-23.4-40.7 0-81.5 11.2-120.2 21.4S166 50 130.4 50c-23.8 0-45.3-4.6-65.2-13.7V20.4C65.2 9.2 56 0 44.8 0S24.4 9.2 24.4 20.4v448.2c0 11.2 9.2 20.4 20.4 20.4s20.4-9.2 20.4-20.4v-148c20 6.9 41.2 10.5 64.2 10.5 40.7 0 81.5-11.2 120.2-20.4 38.7-10.2 74.4-20.4 110-20.4 27.5 0 52 6.1 74.4 18.3 12.7 8.7 30.6-2.1 30.6-17.3V49.9c-.2-8.1-4.2-14.2-10.3-18.3zm-30.6 227.2c-20.4-7.1-41.8-10.2-64.2-10.2-40.7 0-81.5 11.2-120.2 21.4s-74.4 20.4-110 20.4c-23.4 0-44.8-4.1-64.2-13.2V79.5c20.4 7.1 41.8 10.2 64.2 10.2 40.7 0 81.5-11.2 120.2-21.4s74.4-20.4 110-20.4c23.4 0 44.8 4.1 64.2 13.2v197.7z"/>
</svg>
